<svg xmlns="http://www.w3.org/2000/svg" width="102" height="102" viewBox="0 0 102 102">
  <g id="Grupo_56788" data-name="Grupo 56788" transform="translate(-757 -684)">
    <g id="Grupo_56785" data-name="Grupo 56785" transform="translate(769 696)">
      <g id="Grupo_56784" data-name="Grupo 56784">
        <path id="Trazado_104990" data-name="Trazado 104990" d="M565.3,52.012,545.973,71.336l33.036,33.039L614.766,68.62l.473-22.5L604.226,35.106l-22.5.475Zm38.658,4.15a6.91,6.91,0,1,1,0-9.772A6.911,6.911,0,0,1,603.955,56.162Z" transform="translate(-544.454 -28.427)" fill="#31d9e7"/>
        <path id="Trazado_104991" data-name="Trazado 104991" d="M621.514,33.37c-1.546-1.548-4.179-1.656-7.414-.3a27.109,27.109,0,0,0-7.553,5.064c-.132-.132-.264-.267-.4-.4a1.554,1.554,0,0,0-1.109-.446l-22.5.473a1.521,1.521,0,0,0-1.042.446l-7.784,7.784a1.519,1.519,0,0,0,2.147,2.149l7.354-7.354,21.134-.446a28.789,28.789,0,0,0-4.414,6.213,8.423,8.423,0,1,0,8.409,8.423,8.667,8.667,0,0,0-.074-1.111l0-.016a8.421,8.421,0,0,0-5.212-6.693,26.792,26.792,0,0,1,3.5-4.723l8,8L614.1,71.673l-34.249,34.249-30.89-30.89,18.25-18.248a1.52,1.52,0,0,0-2.149-2.149L545.741,73.958a1.514,1.514,0,0,0,0,2.147l33.039,33.039a1.517,1.517,0,0,0,2.149,0l35.754-35.754a1.524,1.524,0,0,0,.444-1.042l.475-22.5a1.514,1.514,0,0,0-.446-1.1l-.4-.4a27.033,27.033,0,0,0,5.064-7.553C623.17,37.552,623.062,34.917,621.514,33.37Zm-21.6,26.991a5.388,5.388,0,0,1-1.219-10.636c-.6,2.366-.287,4.289.946,5.523a4.557,4.557,0,0,0,3.343,1.246,8.853,8.853,0,0,0,2.182-.3,5.386,5.386,0,0,1-5.252,4.17Zm5.055-7.271c-1.75.569-2.794.4-3.18.009-.486-.486-.471-1.685.009-3.175a5.387,5.387,0,0,1,3.171,3.166Zm14.049-13.475a23.843,23.843,0,0,1-4.412,6.574L608.7,40.281a23.807,23.807,0,0,1,6.572-4.412c1.907-.8,3.516-.934,4.1-.352S619.811,37.708,619.015,39.615Z" transform="translate(-545.295 -32.125)" fill="#21949d"/>
        <path id="Trazado_104992" data-name="Trazado 104992" d="M558.005,56.576a8.31,8.31,0,0,0-1.192,10.244l-1.5,1.5a1.519,1.519,0,1,0,2.149,2.147l1.4-1.4a8.332,8.332,0,0,0,5.021,1.689c.132,0,.262,0,.394-.009a7.369,7.369,0,0,0,5.738-3.15,7.042,7.042,0,0,0,.943-6.191,9.182,9.182,0,0,0-1.557-2.879l6.177-6.178a5.277,5.277,0,0,1-1.1,5.853,1.519,1.519,0,0,0,2.149,2.149,8.31,8.31,0,0,0,1.192-10.244l1.5-1.5a1.519,1.519,0,0,0-2.149-2.149l-1.4,1.4a8.33,8.33,0,0,0-5.416-1.681,7.362,7.362,0,0,0-5.738,3.15,7.039,7.039,0,0,0-.943,6.189,9.193,9.193,0,0,0,1.557,2.882l-6.177,6.175a5.273,5.273,0,0,1,1.1-5.85,1.519,1.519,0,0,0-2.149-2.149Zm10.056,5.747a4.023,4.023,0,0,1-.538,3.538,4.343,4.343,0,0,1-3.392,1.851,5.268,5.268,0,0,1-3.09-.825L567.23,60.7A5.911,5.911,0,0,1,568.061,62.323Zm-1.49-7.719a4.024,4.024,0,0,1,.542-3.538,4.343,4.343,0,0,1,3.388-1.853,5.3,5.3,0,0,1,3.092.827L567.4,56.226A5.942,5.942,0,0,1,566.571,54.6Z" transform="translate(-533.42 -14.895)" fill="#21949d"/>
      </g>
      <path id="Trazado_104993" data-name="Trazado 104993" d="M555.963,42.139a1.517,1.517,0,1,0,.58-1.858A1.536,1.536,0,0,0,555.963,42.139Z" transform="translate(-532.198 -22.301)" fill="#21949d"/>
    </g>
    <rect id="Rectángulo_5555" data-name="Rectángulo 5555" width="102" height="102" transform="translate(757 684)" fill="none"/>
  </g>
</svg>
