<svg xmlns="http://www.w3.org/2000/svg" width="102" height="102" viewBox="0 0 102 102">
  <g id="Grupo_56789" data-name="Grupo 56789" transform="translate(-1049 -682)">
    <g id="Grupo_56781" data-name="Grupo 56781" transform="translate(1059 692)">
      <g id="Grupo_56776" data-name="Grupo 56776" transform="translate(1.594 10.717)">
        <g id="Grupo_56765" data-name="Grupo 56765">
          <g id="Grupo_56764" data-name="Grupo 56764">
            <circle id="Elipse_3999" data-name="Elipse 3999" cx="34.848" cy="34.848" r="34.848" fill="#e5ecec"/>
          </g>
        </g>
        <g id="Grupo_56767" data-name="Grupo 56767" transform="translate(8.451 8.439)">
          <g id="Grupo_56766" data-name="Grupo 56766">
            <path id="Trazado_104970" data-name="Trazado 104970" d="M497.411,92.528a26.395,26.395,0,0,1-16.052-47.354c.177-.137.356-.269.538-.4a26.4,26.4,0,1,1,15.514,47.756Z" transform="translate(-471.007 -39.722)" fill="#31d9e7"/>
          </g>
        </g>
        <g id="Grupo_56768" data-name="Grupo 56768" transform="translate(8.451 8.439)">
          <path id="Trazado_104971" data-name="Trazado 104971" d="M488.462,41.282a26.456,26.456,0,1,1-12.386,9.306" transform="translate(-471.007 -39.722)" fill="#31d9e7"/>
        </g>
        <g id="Grupo_56770" data-name="Grupo 56770" transform="translate(17.742 11.89)">
          <g id="Grupo_56769" data-name="Grupo 56769">
            <path id="Trazado_104972" data-name="Trazado 104972" d="M476.753,44.461a1.6,1.6,0,1,1,1.571-1.286,1.615,1.615,0,0,1-1.571,1.286Z" transform="translate(-475.153 -41.262)" fill="#21949d"/>
          </g>
        </g>
        <g id="Grupo_56772" data-name="Grupo 56772" transform="translate(16.847 16.832)">
          <g id="Grupo_56771" data-name="Grupo 56771" transform="translate(0 0)">
            <circle id="Elipse_4000" data-name="Elipse 4000" cx="17.961" cy="17.961" r="17.961" transform="matrix(0.002, -1, 1, 0.002, 0, 35.921)" fill="#e5ecec"/>
          </g>
        </g>
        <g id="Grupo_56774" data-name="Grupo 56774" transform="translate(47.013 44.78)">
          <g id="Grupo_56773" data-name="Grupo 56773">
            <path id="Trazado_104973" data-name="Trazado 104973" d="M489.817,59.141A1.6,1.6,0,1,1,491.4,57.79a1.618,1.618,0,0,1-1.582,1.351Z" transform="translate(-488.217 -55.941)" fill="#21949d"/>
          </g>
        </g>
        <g id="Grupo_56775" data-name="Grupo 56775" transform="translate(25.286 25.271)">
          <circle id="Elipse_4001" data-name="Elipse 4001" cx="9.518" cy="9.518" r="9.518" transform="translate(0 19.035) rotate(-89.734)" fill="#31d9e7"/>
        </g>
      </g>
      <g id="Grupo_56780" data-name="Grupo 56780">
        <g id="Grupo_56777" data-name="Grupo 56777" transform="translate(60.839 1.602)">
          <path id="Trazado_104974" data-name="Trazado 104974" d="M502.072,31.888l-6.98,6.98a4.852,4.852,0,0,0-1.416,3.251L493.833,51l9-9.01Z" transform="translate(-493.676 -31.888)" fill="#f9e478"/>
        </g>
        <g id="Grupo_56779" data-name="Grupo 56779">
          <g id="Grupo_56778" data-name="Grupo 56778" transform="translate(60.996 11.708)">
            <path id="Trazado_104975" data-name="Trazado 104975" d="M512.848,37.155,502.742,36.4l-9,9.01,8.871.143a4.843,4.843,0,0,0,3.251-1.418Z" transform="translate(-493.746 -36.398)" fill="#f9e478"/>
          </g>
          <path id="Trazado_104976" data-name="Trazado 104976" d="M548.123,43.08a1.6,1.6,0,0,0-1.38-1.04l-8.732-.654-.654-8.73a1.6,1.6,0,0,0-2.729-1.015l-6.98,6.98a6.439,6.439,0,0,0-1.887,4.327v.087l.1,5.349a36.5,36.5,0,1,0,5.221,5.167l5.286.085h.027l.058,0a6.425,6.425,0,0,0,4.327-1.884l6.98-6.98a1.6,1.6,0,0,0,.367-1.689Zm-18.21-2.194,4.51-4.51.439,5.893-5.808,5.817-.09-5.059A3.232,3.232,0,0,1,529.913,40.886Zm-26.94,69.089a33.244,33.244,0,1,1,22.183-57.984L521.445,55.7a27.978,27.978,0,0,0-27.964-5.317,1.6,1.6,0,0,0,1.087,3.014,24.781,24.781,0,0,1,24.607,4.573l-3.715,3.715a19.558,19.558,0,1,0-3.6,32.472A1.6,1.6,0,0,0,510.4,91.3a16.142,16.142,0,0,1-7.428,1.788,16.359,16.359,0,1,1,10.211-29.131L509.446,67.7a11.13,11.13,0,1,0,2.308,2.221l3.724-3.722a16.342,16.342,0,0,1,3.025,15.68,1.6,1.6,0,1,0,3.041,1.011,19.545,19.545,0,0,0-3.793-18.963l3.711-3.711a24.8,24.8,0,1,1-38.531,1.923,1.6,1.6,0,1,0-2.586-1.889,28.008,28.008,0,1,0,43.382-2.3l3.708-3.708a33.228,33.228,0,0,1-24.462,55.735Zm7.916-33.243A7.92,7.92,0,1,1,507.141,70l-5.109,5.109a1.6,1.6,0,0,0,2.263,2.265l5.171-5.169A7.878,7.878,0,0,1,510.889,76.733ZM538.51,49.484a3.246,3.246,0,0,1-2.14.948l-5.044-.083,3.076-3.076a1.391,1.391,0,0,0,.1-.105l2.63-2.633,5.891.439Z" transform="translate(-466.524 -31.173)" fill="#21949d"/>
        </g>
      </g>
    </g>
    <rect id="Rectángulo_5556" data-name="Rectángulo 5556" width="102" height="102" transform="translate(1049 682)" fill="none"/>
  </g>
</svg>
